<?xml version="1.0" encoding="UTF-8" standalone="no"?>
<!-- Created with Inkscape (http://www.inkscape.org/) -->

<svg
   width="43.203812mm"
   height="26.976034mm"
   viewBox="0 0 17.281525 10.790414"
   version="1.1"
   id="svg1525"
   inkscape:version="1.1.1 (3bf5ae0d25, 2021-09-20)"
   sodipodi:docname="Salomon logo.svg"
   xmlns:inkscape="http://www.inkscape.org/namespaces/inkscape"
   xmlns:sodipodi="http://sodipodi.sourceforge.net/DTD/sodipodi-0.dtd"
   xmlns="http://www.w3.org/2000/svg"
   xmlns:svg="http://www.w3.org/2000/svg"
   xmlns:rdf="http://www.w3.org/1999/02/22-rdf-syntax-ns#"
   xmlns:cc="http://creativecommons.org/ns#"
   xmlns:dc="http://purl.org/dc/elements/1.1/">
  <title
     id="title1613">Salomon logo</title>
  <sodipodi:namedview
     id="namedview1527"
     pagecolor="#ffffff"
     bordercolor="#999999"
     borderopacity="1"
     inkscape:pageshadow="0"
     inkscape:pageopacity="0"
     inkscape:pagecheckerboard="0"
     inkscape:document-units="mm"
     showgrid="false"
     fit-margin-top="0"
     fit-margin-left="0"
     fit-margin-right="0"
     fit-margin-bottom="0"
     inkscape:zoom="5.3094837"
     inkscape:cx="33.995772"
     inkscape:cy="45.296306"
     inkscape:window-width="1920"
     inkscape:window-height="1001"
     inkscape:window-x="-9"
     inkscape:window-y="-9"
     inkscape:window-maximized="1"
     inkscape:current-layer="layer1"
     scale-x="0.4" />
  <defs
     id="defs1522" />
  <g
     inkscape:label="Layer 1"
     inkscape:groupmode="layer"
     id="layer1"
     transform="translate(-64.712259,-76.728285)">
    <g
       id="g154"
       transform="matrix(0.35277777,0,0,-0.35277777,65.256242,85.944957)">
      <path
         d="m 0,0 c 0,0.375 0.226,0.627 1.569,0.627 0.889,0 1.813,-0.024 2.954,-0.383 V 1.542 C 3.957,1.708 3.041,1.858 1.604,1.858 c -2.441,0 -3.146,-0.742 -3.146,-1.866 0,-1.368 1.021,-1.724 3.111,-1.952 1.15,-0.122 1.734,-0.147 1.734,-0.583 0,-0.393 -0.297,-0.566 -1.604,-0.575 -0.922,0 -2.021,0.103 -3.05,0.471 v -1.379 c 1.072,-0.28 1.944,-0.366 3.068,-0.366 1.839,0 3.138,0.366 3.138,1.892 0,1.447 -1.048,1.638 -3.068,1.856 C 0.803,-0.54 0,-0.469 0,0 m 10.092,-2.055 c 0,-0.881 -0.758,-1.063 -1.83,-1.063 -1.246,0 -1.489,0.233 -1.489,0.592 0,0.382 0.4,0.463 1.41,0.61 0.828,0.113 1.71,0.315 1.909,0.522 z m 1.377,-0.28 v 2.177 c 0,1.806 -1.576,2.057 -3.05,2.057 -0.724,0 -1.76,-0.156 -2.597,-0.357 V 0.254 c 1.045,0.209 1.996,0.337 2.597,0.337 0.672,0 1.533,-0.042 1.533,-0.529 0,-0.417 -0.514,-0.558 -1.533,-0.688 -1.839,-0.246 -3.164,-0.479 -3.164,-1.9 0,-1.465 1.151,-1.884 3.164,-1.884 2.257,0 3.05,0.795 3.05,2.075 m 3.279,-1.971 c 0.505,0 1.151,0.015 1.615,0.083 l -0.202,1.214 c -0.385,-0.044 -0.96,-0.071 -1.403,-0.071 -0.794,0 -1.336,0.322 -1.336,0.924 v 3.97 h -1.378 v -4.082 c 0,-1.684 1.483,-2.041 2.704,-2.041 z m 6.646,2.999 C 21.386,-1.56 21.369,-1.795 21.342,-2.021 21.248,-2.753 20.811,-3.109 20.01,-3.109 h -0.741 c -0.802,0 -1.238,0.356 -1.334,1.088 -0.027,0.226 -0.044,0.461 -0.052,0.714 0.008,0.262 0.025,0.497 0.052,0.715 0.096,0.74 0.532,1.096 1.334,1.096 h 0.741 c 0.801,0 1.238,-0.356 1.332,-1.096 0.027,-0.218 0.044,-0.453 0.052,-0.715 m 1.299,-1.281 c 0.07,0.366 0.096,0.766 0.104,1.188 v 0.093 0.096 c -0.008,0.429 -0.034,0.828 -0.104,1.187 C 22.51,1.24 21.631,1.858 20.01,1.858 h -0.741 c -1.623,0 -2.502,-0.618 -2.685,-1.882 -0.07,-0.359 -0.095,-0.758 -0.104,-1.187 V -1.307 -1.4 c 0.009,-0.422 0.034,-0.822 0.104,-1.188 0.183,-1.255 1.062,-1.873 2.685,-1.873 h 0.741 c 1.621,0 2.5,0.618 2.683,1.873 m 9.744,-1.673 H 33.84 V -1.4 c 0,0.485 -0.025,0.946 -0.105,1.376 -0.182,1.253 -1.062,1.874 -2.684,1.874 h -0.394 c -0.938,0 -1.636,-0.211 -2.09,-0.639 -0.444,0.428 -1.142,0.639 -2.082,0.639 h -0.393 c -1.621,0 -2.501,-0.621 -2.684,-1.874 -0.079,-0.43 -0.105,-0.891 -0.105,-1.376 v -2.861 h 1.403 V -1.4 c 0,0.284 0.026,0.556 0.06,0.808 0.088,0.733 0.524,1.089 1.326,1.089 h 0.393 c 0.801,0 1.236,-0.356 1.332,-1.089 0.036,-0.252 0.053,-0.524 0.053,-0.808 v -2.861 h 1.403 V -1.4 c 0,0.284 0.019,0.556 0.052,0.808 0.097,0.733 0.532,1.089 1.332,1.089 h 0.394 c 0.802,0 1.238,-0.356 1.325,-1.089 0.043,-0.252 0.061,-0.524 0.061,-0.808 z m 6.884,2.954 c 0,-0.253 -0.016,-0.488 -0.052,-0.714 -0.086,-0.732 -0.532,-1.088 -1.333,-1.088 h -0.732 c -0.802,0 -1.247,0.356 -1.334,1.088 -0.034,0.226 -0.052,0.461 -0.052,0.714 0,0.262 0.018,0.497 0.052,0.715 0.087,0.74 0.532,1.096 1.334,1.096 h 0.732 c 0.801,0 1.247,-0.356 1.333,-1.096 0.036,-0.218 0.052,-0.453 0.052,-0.715 m 1.307,-1.281 c 0.062,0.366 0.09,0.766 0.096,1.188 v 0.093 0.096 c -0.006,0.429 -0.034,0.828 -0.096,1.187 -0.181,1.264 -1.07,1.882 -2.692,1.882 h -0.732 c -1.629,0 -2.509,-0.618 -2.693,-1.882 -0.061,-0.359 -0.096,-0.758 -0.096,-1.187 V -1.307 -1.4 c 0,-0.422 0.035,-0.822 0.096,-1.188 0.184,-1.255 1.064,-1.873 2.693,-1.873 h 0.732 c 1.622,0 2.511,0.618 2.692,1.873 m 6.817,-1.663 V -1.4 c 0,0.494 -0.035,0.957 -0.105,1.376 -0.183,1.264 -1.064,1.882 -2.683,1.882 h -0.654 c -1.622,0 -2.511,-0.618 -2.694,-1.882 -0.07,-0.419 -0.095,-0.882 -0.095,-1.376 v -2.851 h 1.401 V -1.4 c 0,0.295 0.019,0.565 0.054,0.808 0.097,0.74 0.531,1.096 1.334,1.096 h 0.654 c 0.8,0 1.237,-0.356 1.323,-1.096 0.036,-0.243 0.053,-0.513 0.053,-0.808 v -2.851 z"
         style="fill:#000000;fill-opacity:1;fill-rule:nonzero;stroke:none"
         id="path156" />
    </g>
    <g
       id="g158"
       transform="matrix(0.35277777,0,0,-0.35277777,76.412486,76.728285)">
      <path
         d="m 0,0 c 1.11,0 2.01,-0.899 2.01,-2.011 v -17.561 c 0,-1.111 -0.9,-2.009 -2.01,-2.009 h -17.564 c -1.109,0 -2.009,0.898 -2.009,2.009 v 17.561 c 0,1.112 0.9,2.011 2.009,2.011 z m -10.342,-16.051 c -0.203,0 -0.468,0.079 -0.748,0.235 l -1.727,0.971 c -0.256,0.144 -0.534,0.238 -0.756,0.238 H -15.8 c -0.221,0 -0.397,-0.178 -0.397,-0.398 v -2.274 c 0,-0.437 0.366,-0.777 0.79,-0.828 4.44,-0.431 8.809,-0.43 13.248,0.002 0.436,0.045 0.793,0.393 0.793,0.832 v 3.782 c 0,0.622 -0.347,1.217 -0.858,1.505 l -8.952,5.035 c -0.212,0.106 -0.35,0.373 -0.35,0.644 0,0.428 0.27,0.774 0.697,0.774 h 3.608 c 0.203,0 0.469,-0.077 0.749,-0.235 l 1.727,-0.971 c 0.255,-0.141 0.534,-0.237 0.755,-0.237 h 2.227 c 0.219,0 0.397,0.18 0.397,0.398 v 2.273 c 0,0.439 -0.366,0.777 -0.79,0.828 -4.439,0.432 -8.809,0.432 -13.247,0 -0.438,-0.045 -0.794,-0.394 -0.794,-0.835 v -3.779 c 0,-0.626 0.347,-1.217 0.859,-1.507 l 8.951,-5.035 c 0.212,-0.106 0.351,-0.377 0.351,-0.644 0,-0.425 -0.27,-0.774 -0.698,-0.774 z"
         style="fill:#12110c;fill-opacity:1;fill-rule:nonzero;stroke:none"
         id="path160" />
    </g>
  </g>
  <metadata
     id="metadata1611">
    <rdf:RDF>
      <cc:Work
         rdf:about="">
        <dc:title>Salomon logo</dc:title>
      </cc:Work>
    </rdf:RDF>
  </metadata>
</svg>
